<?xml version="1.0" encoding="UTF-8" standalone="no"?>
<!DOCTYPE svg PUBLIC "-//W3C//DTD SVG 1.1//EN"
 "http://www.w3.org/Graphics/SVG/1.1/DTD/svg11.dtd">
<!-- Generated by graphviz version 2.36.0 (20140111.2315)
 -->
<!-- Title: &lt;global&gt; Pages: 1 -->
<svg width="5944pt" height="1030pt"
 viewBox="0.00 0.00 5944.00 1030.00" xmlns="http://www.w3.org/2000/svg" xmlns:xlink="http://www.w3.org/1999/xlink">
<g id="graph0" class="graph" transform="scale(1 1) rotate(0) translate(4 1026)">
<title>&lt;global&gt;</title>
<polygon fill="white" stroke="none" points="-4,4 -4,-1026 5940,-1026 5940,4 -4,4"/>
<!-- 5 -->
<g id="node1" class="node"><title>5</title>
<ellipse fill="none" stroke="black" cx="2293" cy="-1004" rx="89.5377" ry="18"/>
<text text-anchor="middle" x="2293" y="-1000.3" font-family="Times,serif" font-size="14.00">(METHOD,&lt;global&gt;)</text>
</g>
<!-- 6 -->
<g id="node2" class="node"><title>6</title>
<ellipse fill="none" stroke="black" cx="2168" cy="-932" rx="117.459" ry="18"/>
<text text-anchor="middle" x="2168" y="-928.3" font-family="Times,serif" font-size="14.00">(BLOCK,&lt;empty&gt;,&lt;empty&gt;)</text>
</g>
<!-- 5&#45;&gt;6 -->
<g id="edge1" class="edge"><title>5&#45;&gt;6</title>
<path fill="none" stroke="black" d="M2264.32,-986.941C2247.1,-977.297 2224.98,-964.909 2206.28,-954.437"/>
<polygon fill="black" stroke="black" points="2207.85,-951.303 2197.41,-949.471 2204.43,-957.41 2207.85,-951.303"/>
</g>
<!-- 56 -->
<g id="node51" class="node"><title>56</title>
<ellipse fill="none" stroke="black" cx="2419" cy="-932" rx="115.534" ry="18"/>
<text text-anchor="middle" x="2419" y="-928.3" font-family="Times,serif" font-size="14.00">(METHOD_RETURN,ANY)</text>
</g>
<!-- 5&#45;&gt;56 -->
<g id="edge2" class="edge"><title>5&#45;&gt;56</title>
<path fill="none" stroke="black" d="M2321.91,-986.941C2339.26,-977.297 2361.56,-964.909 2380.41,-954.437"/>
<polygon fill="black" stroke="black" points="2382.31,-957.387 2389.35,-949.471 2378.91,-951.268 2382.31,-957.387"/>
</g>
<!-- 7 -->
<g id="node3" class="node"><title>7</title>
<ellipse fill="none" stroke="black" cx="2168" cy="-860" rx="122.284" ry="18"/>
<text text-anchor="middle" x="2168" y="-856.3" font-family="Times,serif" font-size="14.00">(METHOD,samldb_add_entry)</text>
</g>
<!-- 6&#45;&gt;7 -->
<g id="edge3" class="edge"><title>6&#45;&gt;7</title>
<path fill="none" stroke="black" d="M2168,-913.697C2168,-905.983 2168,-896.712 2168,-888.112"/>
<polygon fill="black" stroke="black" points="2171.5,-888.104 2168,-878.104 2164.5,-888.104 2171.5,-888.104"/>
</g>
<!-- 8 -->
<g id="node4" class="node"><title>8</title>
<ellipse fill="none" stroke="black" cx="1904" cy="-788" rx="128.058" ry="18"/>
<text text-anchor="middle" x="1904" y="-784.3" font-family="Times,serif" font-size="14.00">(PARAM,struct samldb_ctx *ac)</text>
</g>
<!-- 7&#45;&gt;8 -->
<g id="edge4" class="edge"><title>7&#45;&gt;8</title>
<path fill="none" stroke="black" d="M2111.37,-843.983C2070.32,-833.101 2014.66,-818.342 1971.34,-806.855"/>
<polygon fill="black" stroke="black" points="1972.01,-803.413 1961.45,-804.233 1970.22,-810.18 1972.01,-803.413"/>
</g>
<!-- 9 -->
<g id="node5" class="node"><title>9</title>
<ellipse fill="none" stroke="black" cx="2168" cy="-788" rx="117.459" ry="18"/>
<text text-anchor="middle" x="2168" y="-784.3" font-family="Times,serif" font-size="14.00">(BLOCK,&lt;empty&gt;,&lt;empty&gt;)</text>
</g>
<!-- 7&#45;&gt;9 -->
<g id="edge5" class="edge"><title>7&#45;&gt;9</title>
<path fill="none" stroke="black" d="M2168,-841.697C2168,-833.983 2168,-824.712 2168,-816.112"/>
<polygon fill="black" stroke="black" points="2171.5,-816.104 2168,-806.104 2164.5,-816.104 2171.5,-816.104"/>
</g>
<!-- 54 -->
<g id="node50" class="node"><title>54</title>
<ellipse fill="none" stroke="black" cx="2410" cy="-788" rx="105.411" ry="18"/>
<text text-anchor="middle" x="2410" y="-784.3" font-family="Times,serif" font-size="14.00">(METHOD_RETURN,int)</text>
</g>
<!-- 7&#45;&gt;54 -->
<g id="edge6" class="edge"><title>7&#45;&gt;54</title>
<path fill="none" stroke="black" d="M2220.81,-843.725C2258.63,-832.785 2309.65,-818.027 2349.18,-806.594"/>
<polygon fill="black" stroke="black" points="2350.33,-809.904 2358.96,-803.763 2348.38,-803.179 2350.33,-809.904"/>
</g>
<!-- 10 -->
<g id="node6" class="node"><title>10</title>
<ellipse fill="none" stroke="black" cx="917" cy="-675" rx="176.202" ry="18"/>
<text text-anchor="middle" x="917" y="-671.3" font-family="Times,serif" font-size="14.00">(LOCAL,struct ldb_context* ldb: ldb_context)</text>
</g>
<!-- 9&#45;&gt;10 -->
<g id="edge7" class="edge"><title>9&#45;&gt;10</title>
<path fill="none" stroke="black" d="M2086.83,-774.97C2071.63,-773.048 2055.85,-771.276 2041,-770 1624.89,-734.255 1513.54,-805.095 1102,-734 1055.72,-726.005 1004.93,-709.495 968.296,-696.127"/>
<polygon fill="black" stroke="black" points="969.421,-692.812 958.828,-692.627 966.994,-699.377 969.421,-692.812"/>
</g>
<!-- 11 -->
<g id="node7" class="node"><title>11</title>
<ellipse fill="none" stroke="black" cx="1286" cy="-675" rx="174.252" ry="18"/>
<text text-anchor="middle" x="1286" y="-671.3" font-family="Times,serif" font-size="14.00">(LOCAL,struct ldb_request* req: ldb_request)</text>
</g>
<!-- 9&#45;&gt;11 -->
<g id="edge8" class="edge"><title>9&#45;&gt;11</title>
<path fill="none" stroke="black" d="M2085.78,-775.138C2070.9,-773.235 2055.5,-771.426 2041,-770 1787.94,-745.116 1719.98,-780.565 1470,-734 1424.36,-725.498 1374.2,-709.199 1337.79,-696.039"/>
<polygon fill="black" stroke="black" points="1338.97,-692.742 1328.38,-692.594 1336.57,-699.316 1338.97,-692.742"/>
</g>
<!-- 12 -->
<g id="node8" class="node"><title>12</title>
<ellipse fill="none" stroke="black" cx="1562" cy="-675" rx="83.2892" ry="18"/>
<text text-anchor="middle" x="1562" y="-671.3" font-family="Times,serif" font-size="14.00">(LOCAL,int ret: int)</text>
</g>
<!-- 9&#45;&gt;12 -->
<g id="edge9" class="edge"><title>9&#45;&gt;12</title>
<path fill="none" stroke="black" d="M2084.37,-775.322C2069.92,-773.442 2055.04,-771.593 2041,-770 1869.8,-750.566 1818.26,-789.068 1655,-734 1631.6,-726.108 1608.03,-711.314 1590.47,-698.643"/>
<polygon fill="black" stroke="black" points="1592.48,-695.775 1582.36,-692.633 1588.31,-701.399 1592.48,-695.775"/>
</g>
<!-- 13 -->
<g id="node9" class="node"><title>13</title>
<ellipse fill="none" stroke="black" cx="1908" cy="-675" rx="244.068" ry="18"/>
<text text-anchor="middle" x="1908" y="-671.3" font-family="Times,serif" font-size="14.00">(&lt;operator&gt;.assignment,ldb = ldb_module_get_ctx(ac&#45;&gt;module))</text>
</g>
<!-- 9&#45;&gt;13 -->
<g id="edge10" class="edge"><title>9&#45;&gt;13</title>
<path fill="none" stroke="black" d="M2130.19,-770.86C2084.41,-751.315 2007.21,-718.353 1956.93,-696.888"/>
<polygon fill="black" stroke="black" points="1958.13,-693.595 1947.56,-692.888 1955.38,-700.033 1958.13,-693.595"/>
</g>
<!-- 19 -->
<g id="node15" class="node"><title>19</title>
<ellipse fill="none" stroke="black" cx="2428" cy="-675" rx="258.141" ry="58.8803"/>
<text text-anchor="middle" x="2428" y="-701.3" font-family="Times,serif" font-size="14.00">(&lt;operator&gt;.assignment,ret = ldb_build_add_req(&amp;req, ldb, ac,</text>
<text text-anchor="middle" x="2428" y="-686.3" font-family="Times,serif" font-size="14.00">ttttac&#45;&gt;msg,</text>
<text text-anchor="middle" x="2428" y="-671.3" font-family="Times,serif" font-size="14.00">ttttac&#45;&gt;req&#45;&gt;controls,</text>
<text text-anchor="middle" x="2428" y="-656.3" font-family="Times,serif" font-size="14.00">ttttac, samldb_add_entry_callback,</text>
<text text-anchor="middle" x="2428" y="-641.3" font-family="Times,serif" font-size="14.00">ttttac&#45;&gt;req))</text>
</g>
<!-- 9&#45;&gt;19 -->
<g id="edge11" class="edge"><title>9&#45;&gt;19</title>
<path fill="none" stroke="black" d="M2205.81,-770.86C2230.65,-760.252 2264.76,-745.693 2298.79,-731.164"/>
<polygon fill="black" stroke="black" points="2300.55,-734.216 2308.38,-727.07 2297.8,-727.778 2300.55,-734.216"/>
</g>
<!-- 39 -->
<g id="node35" class="node"><title>39</title>
<ellipse fill="none" stroke="black" cx="2958" cy="-675" rx="253.216" ry="18"/>
<text text-anchor="middle" x="2958" y="-671.3" font-family="Times,serif" font-size="14.00">(LDB_REQ_SET_LOCATION,LDB_REQ_SET_LOCATION(req))</text>
</g>
<!-- 9&#45;&gt;39 -->
<g id="edge12" class="edge"><title>9&#45;&gt;39</title>
<path fill="none" stroke="black" d="M2251.62,-775.283C2266.07,-773.408 2280.96,-771.571 2295,-770 2472.39,-750.154 2518.6,-761.276 2695,-734 2759.46,-724.032 2831.77,-707.704 2884.23,-694.908"/>
<polygon fill="black" stroke="black" points="2885.24,-698.263 2894.12,-692.48 2883.57,-691.465 2885.24,-698.263"/>
</g>
<!-- 41 -->
<g id="node37" class="node"><title>41</title>
<ellipse fill="none" stroke="black" cx="4354" cy="-675" rx="310.509" ry="18"/>
<text text-anchor="middle" x="4354" y="-671.3" font-family="Times,serif" font-size="14.00">(CONTROL_STRUCTURE,if (ret != LDB_SUCCESS),if (ret != LDB_SUCCESS))</text>
</g>
<!-- 9&#45;&gt;41 -->
<g id="edge13" class="edge"><title>9&#45;&gt;41</title>
<path fill="none" stroke="black" d="M2249.17,-774.977C2264.38,-773.054 2280.15,-771.28 2295,-770 2704.9,-734.668 2808.99,-752.508 3220,-734 3534.6,-719.833 3898.15,-700.762 4127.05,-688.423"/>
<polygon fill="black" stroke="black" points="4127.37,-691.911 4137.17,-687.878 4127,-684.921 4127.37,-691.911"/>
</g>
<!-- 48 -->
<g id="node44" class="node"><title>48</title>
<ellipse fill="none" stroke="black" cx="5138" cy="-675" rx="358.153" ry="18"/>
<text text-anchor="middle" x="5138" y="-671.3" font-family="Times,serif" font-size="14.00">(RETURN,return ldb_next_request(ac&#45;&gt;module, req);,return ldb_next_request(ac&#45;&gt;module, req);)</text>
</g>
<!-- 9&#45;&gt;48 -->
<g id="edge14" class="edge"><title>9&#45;&gt;48</title>
<path fill="none" stroke="black" d="M2248.13,-774.816C2263.65,-772.87 2279.8,-771.128 2295,-770 3349.11,-691.745 3618.55,-807.523 4673,-734 4793.2,-725.619 4929.95,-707.523 5023.88,-693.758"/>
<polygon fill="black" stroke="black" points="5024.59,-697.191 5033.97,-692.271 5023.57,-690.266 5024.59,-697.191"/>
</g>
<!-- 14 -->
<g id="node10" class="node"><title>14</title>
<ellipse fill="none" stroke="black" cx="1080" cy="-521" rx="223.37" ry="18"/>
<text text-anchor="middle" x="1080" y="-517.3" font-family="Times,serif" font-size="14.00">(IDENTIFIER,ldb,ldb = ldb_module_get_ctx(ac&#45;&gt;module))</text>
</g>
<!-- 13&#45;&gt;14 -->
<g id="edge15" class="edge"><title>13&#45;&gt;14</title>
<path fill="none" stroke="black" d="M1845.52,-657.541C1794.36,-644.594 1719.92,-626.967 1654,-616 1503.67,-590.992 1463.08,-606.47 1313,-580 1256.4,-570.017 1193.17,-553.962 1146.88,-541.272"/>
<polygon fill="black" stroke="black" points="1147.55,-537.825 1136.98,-538.537 1145.68,-544.572 1147.55,-537.825"/>
</g>
<!-- 15 -->
<g id="node11" class="node"><title>15</title>
<ellipse fill="none" stroke="black" cx="1535" cy="-521" rx="213.272" ry="18"/>
<text text-anchor="middle" x="1535" y="-517.3" font-family="Times,serif" font-size="14.00">(ldb_module_get_ctx,ldb_module_get_ctx(ac&#45;&gt;module))</text>
</g>
<!-- 13&#45;&gt;15 -->
<g id="edge16" class="edge"><title>13&#45;&gt;15</title>
<path fill="none" stroke="black" d="M1866.66,-657.153C1797.86,-629.117 1660.09,-572.975 1585.6,-542.619"/>
<polygon fill="black" stroke="black" points="1586.54,-539.224 1575.96,-538.691 1583.9,-545.706 1586.54,-539.224"/>
</g>
<!-- 16 -->
<g id="node12" class="node"><title>16</title>
<ellipse fill="none" stroke="black" cx="568" cy="-367" rx="174.277" ry="18"/>
<text text-anchor="middle" x="568" y="-363.3" font-family="Times,serif" font-size="14.00">(&lt;operator&gt;.indirectFieldAccess,ac&#45;&gt;module)</text>
</g>
<!-- 15&#45;&gt;16 -->
<g id="edge17" class="edge"><title>15&#45;&gt;16</title>
<path fill="none" stroke="black" d="M1482.87,-503.503C1438.05,-490.029 1371.42,-471.686 1312,-462 1082.04,-424.514 1018.92,-463.739 789,-426 733.867,-416.95 672.503,-400.302 628.454,-387.155"/>
<polygon fill="black" stroke="black" points="629.351,-383.77 618.767,-384.237 627.332,-390.473 629.351,-383.77"/>
</g>
<!-- 17 -->
<g id="node13" class="node"><title>17</title>
<ellipse fill="none" stroke="black" cx="198" cy="-213" rx="198.324" ry="18"/>
<text text-anchor="middle" x="198" y="-209.3" font-family="Times,serif" font-size="14.00">(IDENTIFIER,ac,ldb_module_get_ctx(ac&#45;&gt;module))</text>
</g>
<!-- 16&#45;&gt;17 -->
<g id="edge18" class="edge"><title>16&#45;&gt;17</title>
<path fill="none" stroke="black" d="M527.699,-349.444C459.674,-321.499 322.255,-265.045 248.123,-234.591"/>
<polygon fill="black" stroke="black" points="249.112,-231.214 238.532,-230.651 246.452,-237.689 249.112,-231.214"/>
</g>
<!-- 18 -->
<g id="node14" class="node"><title>18</title>
<ellipse fill="none" stroke="black" cx="568" cy="-213" rx="152.604" ry="18"/>
<text text-anchor="middle" x="568" y="-209.3" font-family="Times,serif" font-size="14.00">(FIELD_IDENTIFIER,module,module)</text>
</g>
<!-- 16&#45;&gt;18 -->
<g id="edge19" class="edge"><title>16&#45;&gt;18</title>
<path fill="none" stroke="black" d="M568,-348.859C568,-322.745 568,-272.743 568,-241.507"/>
<polygon fill="black" stroke="black" points="571.5,-241.311 568,-231.311 564.5,-241.311 571.5,-241.311"/>
</g>
<!-- 20 -->
<g id="node16" class="node"><title>20</title>
<ellipse fill="none" stroke="black" cx="2000" cy="-521" rx="233.018" ry="58.8803"/>
<text text-anchor="middle" x="2000" y="-547.3" font-family="Times,serif" font-size="14.00">(IDENTIFIER,ret,ret = ldb_build_add_req(&amp;req, ldb, ac,</text>
<text text-anchor="middle" x="2000" y="-532.3" font-family="Times,serif" font-size="14.00">ttttac&#45;&gt;msg,</text>
<text text-anchor="middle" x="2000" y="-517.3" font-family="Times,serif" font-size="14.00">ttttac&#45;&gt;req&#45;&gt;controls,</text>
<text text-anchor="middle" x="2000" y="-502.3" font-family="Times,serif" font-size="14.00">ttttac, samldb_add_entry_callback,</text>
<text text-anchor="middle" x="2000" y="-487.3" font-family="Times,serif" font-size="14.00">ttttac&#45;&gt;req))</text>
</g>
<!-- 19&#45;&gt;20 -->
<g id="edge20" class="edge"><title>19&#45;&gt;20</title>
<path fill="none" stroke="black" d="M2290.81,-625.279C2243.48,-608.468 2190.36,-589.605 2142.6,-572.644"/>
<polygon fill="black" stroke="black" points="2143.72,-569.327 2133.13,-569.278 2141.38,-575.923 2143.72,-569.327"/>
</g>
<!-- 21 -->
<g id="node17" class="node"><title>21</title>
<ellipse fill="none" stroke="black" cx="2471" cy="-521" rx="219.305" ry="58.8803"/>
<text text-anchor="middle" x="2471" y="-547.3" font-family="Times,serif" font-size="14.00">(ldb_build_add_req,ldb_build_add_req(&amp;req, ldb, ac,</text>
<text text-anchor="middle" x="2471" y="-532.3" font-family="Times,serif" font-size="14.00">ttttac&#45;&gt;msg,</text>
<text text-anchor="middle" x="2471" y="-517.3" font-family="Times,serif" font-size="14.00">ttttac&#45;&gt;req&#45;&gt;controls,</text>
<text text-anchor="middle" x="2471" y="-502.3" font-family="Times,serif" font-size="14.00">ttttac, samldb_add_entry_callback,</text>
<text text-anchor="middle" x="2471" y="-487.3" font-family="Times,serif" font-size="14.00">ttttac&#45;&gt;req))</text>
</g>
<!-- 19&#45;&gt;21 -->
<g id="edge21" class="edge"><title>19&#45;&gt;21</title>
<path fill="none" stroke="black" d="M2444.38,-616.102C2446.83,-607.446 2449.37,-598.458 2451.87,-589.622"/>
<polygon fill="black" stroke="black" points="2455.31,-590.312 2454.67,-579.737 2448.58,-588.407 2455.31,-590.312"/>
</g>
<!-- 22 -->
<g id="node18" class="node"><title>22</title>
<ellipse fill="none" stroke="black" cx="914" cy="-367" rx="115.534" ry="18"/>
<text text-anchor="middle" x="914" y="-363.3" font-family="Times,serif" font-size="14.00">(&lt;operator&gt;.addressOf,&amp;req)</text>
</g>
<!-- 21&#45;&gt;22 -->
<g id="edge22" class="edge"><title>21&#45;&gt;22</title>
<path fill="none" stroke="black" d="M2323.19,-477.558C2296.37,-471.293 2268.5,-465.707 2242,-462 1977.13,-424.947 1299.28,-487.54 1039,-426 1007.41,-418.532 974.2,-402.69 949.954,-389.447"/>
<polygon fill="black" stroke="black" points="951.562,-386.336 941.123,-384.522 948.152,-392.449 951.562,-386.336"/>
</g>
<!-- 24 -->
<g id="node20" class="node"><title>24</title>
<ellipse fill="none" stroke="black" cx="1262" cy="-367" rx="213.88" ry="58.8803"/>
<text text-anchor="middle" x="1262" y="-393.3" font-family="Times,serif" font-size="14.00">(IDENTIFIER,ldb,ldb_build_add_req(&amp;req, ldb, ac,</text>
<text text-anchor="middle" x="1262" y="-378.3" font-family="Times,serif" font-size="14.00">ttttac&#45;&gt;msg,</text>
<text text-anchor="middle" x="1262" y="-363.3" font-family="Times,serif" font-size="14.00">ttttac&#45;&gt;req&#45;&gt;controls,</text>
<text text-anchor="middle" x="1262" y="-348.3" font-family="Times,serif" font-size="14.00">ttttac, samldb_add_entry_callback,</text>
<text text-anchor="middle" x="1262" y="-333.3" font-family="Times,serif" font-size="14.00">ttttac&#45;&gt;req))</text>
</g>
<!-- 21&#45;&gt;24 -->
<g id="edge23" class="edge"><title>21&#45;&gt;24</title>
<path fill="none" stroke="black" d="M2322.52,-477.802C2295.89,-471.553 2268.27,-465.91 2242,-462 1908.85,-412.402 1817.99,-476.663 1485,-426 1462.78,-422.619 1439.57,-417.929 1416.88,-412.666"/>
<polygon fill="black" stroke="black" points="1417.38,-409.188 1406.84,-410.295 1415.77,-416.001 1417.38,-409.188"/>
</g>
<!-- 25 -->
<g id="node21" class="node"><title>25</title>
<ellipse fill="none" stroke="black" cx="1705" cy="-367" rx="210.577" ry="58.8803"/>
<text text-anchor="middle" x="1705" y="-393.3" font-family="Times,serif" font-size="14.00">(IDENTIFIER,ac,ldb_build_add_req(&amp;req, ldb, ac,</text>
<text text-anchor="middle" x="1705" y="-378.3" font-family="Times,serif" font-size="14.00">ttttac&#45;&gt;msg,</text>
<text text-anchor="middle" x="1705" y="-363.3" font-family="Times,serif" font-size="14.00">ttttac&#45;&gt;req&#45;&gt;controls,</text>
<text text-anchor="middle" x="1705" y="-348.3" font-family="Times,serif" font-size="14.00">ttttac, samldb_add_entry_callback,</text>
<text text-anchor="middle" x="1705" y="-333.3" font-family="Times,serif" font-size="14.00">ttttac&#45;&gt;req))</text>
</g>
<!-- 21&#45;&gt;25 -->
<g id="edge24" class="edge"><title>21&#45;&gt;25</title>
<path fill="none" stroke="black" d="M2319.5,-478.573C2293.77,-472.416 2267.22,-466.603 2242,-462 2102.51,-436.535 2064.36,-452.142 1925,-426 1903.96,-422.053 1881.97,-417.178 1860.37,-411.944"/>
<polygon fill="black" stroke="black" points="1861.02,-408.501 1850.48,-409.516 1859.35,-415.299 1861.02,-408.501"/>
</g>
<!-- 26 -->
<g id="node22" class="node"><title>26</title>
<ellipse fill="none" stroke="black" cx="2096" cy="-367" rx="162.228" ry="18"/>
<text text-anchor="middle" x="2096" y="-363.3" font-family="Times,serif" font-size="14.00">(&lt;operator&gt;.indirectFieldAccess,ac&#45;&gt;msg)</text>
</g>
<!-- 21&#45;&gt;26 -->
<g id="edge25" class="edge"><title>21&#45;&gt;26</title>
<path fill="none" stroke="black" d="M2351.83,-471.697C2282.38,-443.546 2198.44,-409.521 2146.12,-388.315"/>
<polygon fill="black" stroke="black" points="2147.31,-385.021 2136.73,-384.508 2144.68,-391.509 2147.31,-385.021"/>
</g>
<!-- 29 -->
<g id="node25" class="node"><title>29</title>
<ellipse fill="none" stroke="black" cx="2471" cy="-367" rx="194.474" ry="18"/>
<text text-anchor="middle" x="2471" y="-363.3" font-family="Times,serif" font-size="14.00">(&lt;operator&gt;.indirectFieldAccess,ac&#45;&gt;req&#45;&gt;controls)</text>
</g>
<!-- 21&#45;&gt;29 -->
<g id="edge26" class="edge"><title>21&#45;&gt;29</title>
<path fill="none" stroke="black" d="M2471,-462.102C2471,-439.098 2471,-413.746 2471,-395.157"/>
<polygon fill="black" stroke="black" points="2474.5,-395.063 2471,-385.063 2467.5,-395.063 2474.5,-395.063"/>
</g>
<!-- 34 -->
<g id="node30" class="node"><title>34</title>
<ellipse fill="none" stroke="black" cx="2895" cy="-367" rx="210.577" ry="58.8803"/>
<text text-anchor="middle" x="2895" y="-393.3" font-family="Times,serif" font-size="14.00">(IDENTIFIER,ac,ldb_build_add_req(&amp;req, ldb, ac,</text>
<text text-anchor="middle" x="2895" y="-378.3" font-family="Times,serif" font-size="14.00">ttttac&#45;&gt;msg,</text>
<text text-anchor="middle" x="2895" y="-363.3" font-family="Times,serif" font-size="14.00">ttttac&#45;&gt;req&#45;&gt;controls,</text>
<text text-anchor="middle" x="2895" y="-348.3" font-family="Times,serif" font-size="14.00">ttttac, samldb_add_entry_callback,</text>
<text text-anchor="middle" x="2895" y="-333.3" font-family="Times,serif" font-size="14.00">ttttac&#45;&gt;req))</text>
</g>
<!-- 21&#45;&gt;34 -->
<g id="edge27" class="edge"><title>21&#45;&gt;34</title>
<path fill="none" stroke="black" d="M2600.52,-473.569C2650.28,-455.73 2707.23,-435.316 2757.69,-417.223"/>
<polygon fill="black" stroke="black" points="2759.14,-420.424 2767.37,-413.755 2756.77,-413.835 2759.14,-420.424"/>
</g>
<!-- 35 -->
<g id="node31" class="node"><title>35</title>
<ellipse fill="none" stroke="black" cx="3433" cy="-367" rx="309.569" ry="58.8803"/>
<text text-anchor="middle" x="3433" y="-393.3" font-family="Times,serif" font-size="14.00">(IDENTIFIER,samldb_add_entry_callback,ldb_build_add_req(&amp;req, ldb, ac,</text>
<text text-anchor="middle" x="3433" y="-378.3" font-family="Times,serif" font-size="14.00">ttttac&#45;&gt;msg,</text>
<text text-anchor="middle" x="3433" y="-363.3" font-family="Times,serif" font-size="14.00">ttttac&#45;&gt;req&#45;&gt;controls,</text>
<text text-anchor="middle" x="3433" y="-348.3" font-family="Times,serif" font-size="14.00">ttttac, samldb_add_entry_callback,</text>
<text text-anchor="middle" x="3433" y="-333.3" font-family="Times,serif" font-size="14.00">ttttac&#45;&gt;req))</text>
</g>
<!-- 21&#45;&gt;35 -->
<g id="edge28" class="edge"><title>21&#45;&gt;35</title>
<path fill="none" stroke="black" d="M2634.53,-481.85C2669.83,-474.498 2707.05,-467.413 2742,-462 2906.15,-436.577 2949.48,-448.877 3114,-426 3144.82,-421.714 3177.21,-416.575 3209.04,-411.15"/>
<polygon fill="black" stroke="black" points="3209.64,-414.599 3218.9,-409.458 3208.46,-407.7 3209.64,-414.599"/>
</g>
<!-- 36 -->
<g id="node32" class="node"><title>36</title>
<ellipse fill="none" stroke="black" cx="3919" cy="-367" rx="158.379" ry="18"/>
<text text-anchor="middle" x="3919" y="-363.3" font-family="Times,serif" font-size="14.00">(&lt;operator&gt;.indirectFieldAccess,ac&#45;&gt;req)</text>
</g>
<!-- 21&#45;&gt;36 -->
<g id="edge29" class="edge"><title>21&#45;&gt;36</title>
<path fill="none" stroke="black" d="M2631.06,-480.894C2667.34,-473.388 2705.83,-466.481 2742,-462 3187.33,-406.833 3309.85,-508.121 3751,-426 3793.1,-418.162 3838.94,-401.774 3872.08,-388.41"/>
<polygon fill="black" stroke="black" points="3873.58,-391.579 3881.51,-384.553 3870.93,-385.101 3873.58,-391.579"/>
</g>
<!-- 23 -->
<g id="node19" class="node"><title>23</title>
<ellipse fill="none" stroke="black" cx="953" cy="-213" rx="213.88" ry="58.8803"/>
<text text-anchor="middle" x="953" y="-239.3" font-family="Times,serif" font-size="14.00">(IDENTIFIER,req,ldb_build_add_req(&amp;req, ldb, ac,</text>
<text text-anchor="middle" x="953" y="-224.3" font-family="Times,serif" font-size="14.00">ttttac&#45;&gt;msg,</text>
<text text-anchor="middle" x="953" y="-209.3" font-family="Times,serif" font-size="14.00">ttttac&#45;&gt;req&#45;&gt;controls,</text>
<text text-anchor="middle" x="953" y="-194.3" font-family="Times,serif" font-size="14.00">ttttac, samldb_add_entry_callback,</text>
<text text-anchor="middle" x="953" y="-179.3" font-family="Times,serif" font-size="14.00">ttttac&#45;&gt;req))</text>
</g>
<!-- 22&#45;&gt;23 -->
<g id="edge30" class="edge"><title>22&#45;&gt;23</title>
<path fill="none" stroke="black" d="M918.398,-348.859C922.636,-332.341 929.327,-306.263 935.7,-281.424"/>
<polygon fill="black" stroke="black" points="939.12,-282.179 938.215,-271.623 932.34,-280.439 939.12,-282.179"/>
</g>
<!-- 27 -->
<g id="node23" class="node"><title>27</title>
<ellipse fill="none" stroke="black" cx="1755" cy="-213" rx="210.577" ry="58.8803"/>
<text text-anchor="middle" x="1755" y="-239.3" font-family="Times,serif" font-size="14.00">(IDENTIFIER,ac,ldb_build_add_req(&amp;req, ldb, ac,</text>
<text text-anchor="middle" x="1755" y="-224.3" font-family="Times,serif" font-size="14.00">ttttac&#45;&gt;msg,</text>
<text text-anchor="middle" x="1755" y="-209.3" font-family="Times,serif" font-size="14.00">ttttac&#45;&gt;req&#45;&gt;controls,</text>
<text text-anchor="middle" x="1755" y="-194.3" font-family="Times,serif" font-size="14.00">ttttac, samldb_add_entry_callback,</text>
<text text-anchor="middle" x="1755" y="-179.3" font-family="Times,serif" font-size="14.00">ttttac&#45;&gt;req))</text>
</g>
<!-- 26&#45;&gt;27 -->
<g id="edge31" class="edge"><title>26&#45;&gt;27</title>
<path fill="none" stroke="black" d="M2058.86,-349.444C2014.85,-329.826 1939.32,-296.16 1874.58,-267.301"/>
<polygon fill="black" stroke="black" points="1875.67,-263.955 1865.11,-263.081 1872.82,-270.349 1875.67,-263.955"/>
</g>
<!-- 28 -->
<g id="node24" class="node"><title>28</title>
<ellipse fill="none" stroke="black" cx="2113" cy="-213" rx="129.008" ry="18"/>
<text text-anchor="middle" x="2113" y="-209.3" font-family="Times,serif" font-size="14.00">(FIELD_IDENTIFIER,msg,msg)</text>
</g>
<!-- 26&#45;&gt;28 -->
<g id="edge32" class="edge"><title>26&#45;&gt;28</title>
<path fill="none" stroke="black" d="M2097.92,-348.859C2100.84,-322.745 2106.43,-272.743 2109.92,-241.507"/>
<polygon fill="black" stroke="black" points="2113.43,-241.639 2111.06,-231.311 2106.47,-240.86 2113.43,-241.639"/>
</g>
<!-- 30 -->
<g id="node26" class="node"><title>30</title>
<ellipse fill="none" stroke="black" cx="2453" cy="-213" rx="158.379" ry="18"/>
<text text-anchor="middle" x="2453" y="-209.3" font-family="Times,serif" font-size="14.00">(&lt;operator&gt;.indirectFieldAccess,ac&#45;&gt;req)</text>
</g>
<!-- 29&#45;&gt;30 -->
<g id="edge33" class="edge"><title>29&#45;&gt;30</title>
<path fill="none" stroke="black" d="M2468.97,-348.859C2465.88,-322.745 2459.96,-272.743 2456.26,-241.507"/>
<polygon fill="black" stroke="black" points="2459.7,-240.83 2455.05,-231.311 2452.75,-241.654 2459.7,-240.83"/>
</g>
<!-- 33 -->
<g id="node29" class="node"><title>33</title>
<ellipse fill="none" stroke="black" cx="2785" cy="-213" rx="155.005" ry="18"/>
<text text-anchor="middle" x="2785" y="-209.3" font-family="Times,serif" font-size="14.00">(FIELD_IDENTIFIER,controls,controls)</text>
</g>
<!-- 29&#45;&gt;33 -->
<g id="edge34" class="edge"><title>29&#45;&gt;33</title>
<path fill="none" stroke="black" d="M2505.8,-349.153C2563.37,-321.288 2678.28,-265.661 2741.25,-235.18"/>
<polygon fill="black" stroke="black" points="2743.04,-238.199 2750.52,-230.691 2739.99,-231.898 2743.04,-238.199"/>
</g>
<!-- 31 -->
<g id="node27" class="node"><title>31</title>
<ellipse fill="none" stroke="black" cx="2278" cy="-59" rx="210.577" ry="58.8803"/>
<text text-anchor="middle" x="2278" y="-85.3" font-family="Times,serif" font-size="14.00">(IDENTIFIER,ac,ldb_build_add_req(&amp;req, ldb, ac,</text>
<text text-anchor="middle" x="2278" y="-70.3" font-family="Times,serif" font-size="14.00">ttttac&#45;&gt;msg,</text>
<text text-anchor="middle" x="2278" y="-55.3" font-family="Times,serif" font-size="14.00">ttttac&#45;&gt;req&#45;&gt;controls,</text>
<text text-anchor="middle" x="2278" y="-40.3" font-family="Times,serif" font-size="14.00">ttttac, samldb_add_entry_callback,</text>
<text text-anchor="middle" x="2278" y="-25.3" font-family="Times,serif" font-size="14.00">ttttac&#45;&gt;req))</text>
</g>
<!-- 30&#45;&gt;31 -->
<g id="edge35" class="edge"><title>30&#45;&gt;31</title>
<path fill="none" stroke="black" d="M2433.27,-194.859C2412.83,-177.109 2379.68,-148.321 2349.26,-121.892"/>
<polygon fill="black" stroke="black" points="2351.43,-119.147 2341.59,-115.232 2346.84,-124.431 2351.43,-119.147"/>
</g>
<!-- 32 -->
<g id="node28" class="node"><title>32</title>
<ellipse fill="none" stroke="black" cx="2628" cy="-59" rx="121.309" ry="18"/>
<text text-anchor="middle" x="2628" y="-55.3" font-family="Times,serif" font-size="14.00">(FIELD_IDENTIFIER,req,req)</text>
</g>
<!-- 30&#45;&gt;32 -->
<g id="edge36" class="edge"><title>30&#45;&gt;32</title>
<path fill="none" stroke="black" d="M2472.73,-194.859C2504.15,-167.575 2565.58,-114.212 2601.03,-83.4235"/>
<polygon fill="black" stroke="black" points="2603.35,-86.0463 2608.6,-76.8463 2598.76,-80.7614 2603.35,-86.0463"/>
</g>
<!-- 37 -->
<g id="node33" class="node"><title>37</title>
<ellipse fill="none" stroke="black" cx="3744" cy="-213" rx="210.577" ry="58.8803"/>
<text text-anchor="middle" x="3744" y="-239.3" font-family="Times,serif" font-size="14.00">(IDENTIFIER,ac,ldb_build_add_req(&amp;req, ldb, ac,</text>
<text text-anchor="middle" x="3744" y="-224.3" font-family="Times,serif" font-size="14.00">ttttac&#45;&gt;msg,</text>
<text text-anchor="middle" x="3744" y="-209.3" font-family="Times,serif" font-size="14.00">ttttac&#45;&gt;req&#45;&gt;controls,</text>
<text text-anchor="middle" x="3744" y="-194.3" font-family="Times,serif" font-size="14.00">ttttac, samldb_add_entry_callback,</text>
<text text-anchor="middle" x="3744" y="-179.3" font-family="Times,serif" font-size="14.00">ttttac&#45;&gt;req))</text>
</g>
<!-- 36&#45;&gt;37 -->
<g id="edge37" class="edge"><title>36&#45;&gt;37</title>
<path fill="none" stroke="black" d="M3899.27,-348.859C3878.83,-331.109 3845.68,-302.321 3815.26,-275.892"/>
<polygon fill="black" stroke="black" points="3817.43,-273.147 3807.59,-269.232 3812.84,-278.431 3817.43,-273.147"/>
</g>
<!-- 38 -->
<g id="node34" class="node"><title>38</title>
<ellipse fill="none" stroke="black" cx="4094" cy="-213" rx="121.309" ry="18"/>
<text text-anchor="middle" x="4094" y="-209.3" font-family="Times,serif" font-size="14.00">(FIELD_IDENTIFIER,req,req)</text>
</g>
<!-- 36&#45;&gt;38 -->
<g id="edge38" class="edge"><title>36&#45;&gt;38</title>
<path fill="none" stroke="black" d="M3938.73,-348.859C3970.15,-321.575 4031.58,-268.212 4067.03,-237.423"/>
<polygon fill="black" stroke="black" points="4069.35,-240.046 4074.6,-230.846 4064.76,-234.761 4069.35,-240.046"/>
</g>
<!-- 40 -->
<g id="node36" class="node"><title>40</title>
<ellipse fill="none" stroke="black" cx="2958" cy="-521" rx="206.522" ry="18"/>
<text text-anchor="middle" x="2958" y="-517.3" font-family="Times,serif" font-size="14.00">(IDENTIFIER,req,LDB_REQ_SET_LOCATION(req))</text>
</g>
<!-- 39&#45;&gt;40 -->
<g id="edge39" class="edge"><title>39&#45;&gt;40</title>
<path fill="none" stroke="black" d="M2958,-656.859C2958,-630.745 2958,-580.743 2958,-549.507"/>
<polygon fill="black" stroke="black" points="2961.5,-549.311 2958,-539.311 2954.5,-549.311 2961.5,-549.311"/>
</g>
<!-- 42 -->
<g id="node38" class="node"><title>42</title>
<ellipse fill="none" stroke="black" cx="4354" cy="-521" rx="178.601" ry="18"/>
<text text-anchor="middle" x="4354" y="-517.3" font-family="Times,serif" font-size="14.00">(&lt;operator&gt;.notEquals,ret != LDB_SUCCESS)</text>
</g>
<!-- 41&#45;&gt;42 -->
<g id="edge40" class="edge"><title>41&#45;&gt;42</title>
<path fill="none" stroke="black" d="M4354,-656.859C4354,-630.745 4354,-580.743 4354,-549.507"/>
<polygon fill="black" stroke="black" points="4357.5,-549.311 4354,-539.311 4350.5,-549.311 4357.5,-549.311"/>
</g>
<!-- 45 -->
<g id="node41" class="node"><title>45</title>
<ellipse fill="none" stroke="black" cx="4878" cy="-521" rx="117.459" ry="18"/>
<text text-anchor="middle" x="4878" y="-517.3" font-family="Times,serif" font-size="14.00">(BLOCK,&lt;empty&gt;,&lt;empty&gt;)</text>
</g>
<!-- 41&#45;&gt;45 -->
<g id="edge41" class="edge"><title>41&#45;&gt;45</title>
<path fill="none" stroke="black" d="M4411.58,-657.299C4510.89,-628.49 4713.58,-569.696 4815.92,-540.007"/>
<polygon fill="black" stroke="black" points="4817.18,-543.288 4825.81,-537.14 4815.23,-536.565 4817.18,-543.288"/>
</g>
<!-- 43 -->
<g id="node39" class="node"><title>43</title>
<ellipse fill="none" stroke="black" cx="4257" cy="-367" rx="161.279" ry="18"/>
<text text-anchor="middle" x="4257" y="-363.3" font-family="Times,serif" font-size="14.00">(IDENTIFIER,ret,ret != LDB_SUCCESS)</text>
</g>
<!-- 42&#45;&gt;43 -->
<g id="edge42" class="edge"><title>42&#45;&gt;43</title>
<path fill="none" stroke="black" d="M4343.06,-502.859C4326.11,-476.289 4293.37,-424.989 4273.52,-393.888"/>
<polygon fill="black" stroke="black" points="4276.38,-391.858 4268.05,-385.311 4270.48,-395.624 4276.38,-391.858"/>
</g>
<!-- 44 -->
<g id="node40" class="node"><title>44</title>
<ellipse fill="none" stroke="black" cx="4648" cy="-367" rx="211.322" ry="18"/>
<text text-anchor="middle" x="4648" y="-363.3" font-family="Times,serif" font-size="14.00">(IDENTIFIER,LDB_SUCCESS,ret != LDB_SUCCESS)</text>
</g>
<!-- 42&#45;&gt;44 -->
<g id="edge43" class="edge"><title>42&#45;&gt;44</title>
<path fill="none" stroke="black" d="M4386.59,-503.153C4440.23,-475.419 4547.07,-420.182 4606.2,-389.61"/>
<polygon fill="black" stroke="black" points="4607.99,-392.625 4615.27,-384.923 4604.78,-386.406 4607.99,-392.625"/>
</g>
<!-- 46 -->
<g id="node42" class="node"><title>46</title>
<ellipse fill="none" stroke="black" cx="5005" cy="-367" rx="126.608" ry="18"/>
<text text-anchor="middle" x="5005" y="-363.3" font-family="Times,serif" font-size="14.00">(RETURN,return ret;,return ret;)</text>
</g>
<!-- 45&#45;&gt;46 -->
<g id="edge44" class="edge"><title>45&#45;&gt;46</title>
<path fill="none" stroke="black" d="M4892.32,-502.859C4914.71,-476.061 4958.12,-424.106 4984.04,-393.092"/>
<polygon fill="black" stroke="black" points="4986.81,-395.23 4990.54,-385.311 4981.44,-390.741 4986.81,-395.23"/>
</g>
<!-- 47 -->
<g id="node43" class="node"><title>47</title>
<ellipse fill="none" stroke="black" cx="4997" cy="-213" rx="114.085" ry="18"/>
<text text-anchor="middle" x="4997" y="-209.3" font-family="Times,serif" font-size="14.00">(IDENTIFIER,ret,return ret;)</text>
</g>
<!-- 46&#45;&gt;47 -->
<g id="edge45" class="edge"><title>46&#45;&gt;47</title>
<path fill="none" stroke="black" d="M5004.1,-348.859C5002.72,-322.745 5000.09,-272.743 4998.45,-241.507"/>
<polygon fill="black" stroke="black" points="5001.93,-241.114 4997.91,-231.311 4994.94,-241.482 5001.93,-241.114"/>
</g>
<!-- 49 -->
<g id="node45" class="node"><title>49</title>
<ellipse fill="none" stroke="black" cx="5332" cy="-521" rx="204.598" ry="18"/>
<text text-anchor="middle" x="5332" y="-517.3" font-family="Times,serif" font-size="14.00">(ldb_next_request,ldb_next_request(ac&#45;&gt;module, req))</text>
</g>
<!-- 48&#45;&gt;49 -->
<g id="edge46" class="edge"><title>48&#45;&gt;49</title>
<path fill="none" stroke="black" d="M5159.88,-656.859C5194.75,-629.532 5263.02,-576.047 5302.29,-545.281"/>
<polygon fill="black" stroke="black" points="5304.49,-548.001 5310.2,-539.078 5300.17,-542.491 5304.49,-548.001"/>
</g>
<!-- 50 -->
<g id="node46" class="node"><title>50</title>
<ellipse fill="none" stroke="black" cx="5332" cy="-367" rx="174.277" ry="18"/>
<text text-anchor="middle" x="5332" y="-363.3" font-family="Times,serif" font-size="14.00">(&lt;operator&gt;.indirectFieldAccess,ac&#45;&gt;module)</text>
</g>
<!-- 49&#45;&gt;50 -->
<g id="edge47" class="edge"><title>49&#45;&gt;50</title>
<path fill="none" stroke="black" d="M5332,-502.859C5332,-476.745 5332,-426.743 5332,-395.507"/>
<polygon fill="black" stroke="black" points="5335.5,-395.311 5332,-385.311 5328.5,-395.311 5335.5,-395.311"/>
</g>
<!-- 53 -->
<g id="node49" class="node"><title>53</title>
<ellipse fill="none" stroke="black" cx="5730" cy="-367" rx="206.048" ry="18"/>
<text text-anchor="middle" x="5730" y="-363.3" font-family="Times,serif" font-size="14.00">(IDENTIFIER,req,ldb_next_request(ac&#45;&gt;module, req))</text>
</g>
<!-- 49&#45;&gt;53 -->
<g id="edge48" class="edge"><title>49&#45;&gt;53</title>
<path fill="none" stroke="black" d="M5375.73,-503.299C5449.22,-475.232 5597.23,-418.706 5676.69,-388.359"/>
<polygon fill="black" stroke="black" points="5678.41,-391.451 5686.5,-384.613 5675.91,-384.912 5678.41,-391.451"/>
</g>
<!-- 51 -->
<g id="node47" class="node"><title>51</title>
<ellipse fill="none" stroke="black" cx="5332" cy="-213" rx="202.174" ry="18"/>
<text text-anchor="middle" x="5332" y="-209.3" font-family="Times,serif" font-size="14.00">(IDENTIFIER,ac,ldb_next_request(ac&#45;&gt;module, req))</text>
</g>
<!-- 50&#45;&gt;51 -->
<g id="edge49" class="edge"><title>50&#45;&gt;51</title>
<path fill="none" stroke="black" d="M5332,-348.859C5332,-322.745 5332,-272.743 5332,-241.507"/>
<polygon fill="black" stroke="black" points="5335.5,-241.311 5332,-231.311 5328.5,-241.311 5335.5,-241.311"/>
</g>
<!-- 52 -->
<g id="node48" class="node"><title>52</title>
<ellipse fill="none" stroke="black" cx="5706" cy="-213" rx="152.604" ry="18"/>
<text text-anchor="middle" x="5706" y="-209.3" font-family="Times,serif" font-size="14.00">(FIELD_IDENTIFIER,module,module)</text>
</g>
<!-- 50&#45;&gt;52 -->
<g id="edge50" class="edge"><title>50&#45;&gt;52</title>
<path fill="none" stroke="black" d="M5372.74,-349.444C5441.68,-321.425 5581.13,-264.748 5655.93,-234.351"/>
<polygon fill="black" stroke="black" points="5657.65,-237.428 5665.6,-230.42 5655.02,-230.943 5657.65,-237.428"/>
</g>
</g>
</svg>
